# xmcd CD database file
#
# Track frame offsets:
#	150
#	6132
#	23507
#	45732
#	64157
#
# Disc length: 968 seconds
#
# Revision: 0
# Processed by: cddbd v1.5.2PL0 Copyright (c) Steve Scherf et al.
# Submitted via: CDex 1.70beta2
#
DISCID=3303c605
DTITLE=[TEST] - Take Your Time
DYEAR=2009
DGENRE=Jazz
TTITLE0=Opening
TTITLE1=Pilot Dance
TTITLE2=July Storm
TTITLE3=Mr.Seventy
TTITLE4=Ending
EXTD=YEAR: 2009
EXTT0=
EXTT1=
EXTT2=
EXTT3=
EXTT4=
PLAYORDER=
